<svg width="118" height="36" viewBox="0 0 118 36" fill="none" xmlns="http://www.w3.org/2000/svg">
<path d="M6.28002 0.728027V15.848C6.28002 17.36 6.65202 18.524 7.39602 19.34C8.14002 20.156 9.23202 20.564 10.672 20.564C12.112 20.564 13.216 20.156 13.984 19.34C14.752 18.524 15.136 17.36 15.136 15.848V0.728027H21.292V15.812C21.292 18.068 20.812 19.976 19.852 21.536C18.892 23.096 17.596 24.272 15.964 25.064C14.356 25.856 12.556 26.252 10.564 26.252C8.57202 26.252 6.78402 25.868 5.20002 25.1C3.64002 24.308 2.40402 23.132 1.49202 21.572C0.580023 19.988 0.124023 18.068 0.124023 15.812V0.728027H6.28002Z" fill="#316DFF"/>
<path d="M31.7708 8.75603C32.3708 7.82003 33.1988 7.06403 34.2548 6.48803C35.3108 5.91203 36.5468 5.62403 37.9628 5.62403C39.6188 5.62403 41.1188 6.04403 42.4628 6.88403C43.8068 7.72403 44.8628 8.92403 45.6308 10.484C46.4228 12.044 46.8188 13.856 46.8188 15.92C46.8188 17.984 46.4228 19.808 45.6308 21.392C44.8628 22.952 43.8068 24.164 42.4628 25.028C41.1188 25.868 39.6188 26.288 37.9628 26.288C36.5708 26.288 35.3348 26 34.2548 25.424C33.1988 24.848 32.3708 24.104 31.7708 23.192V35.576H25.6148V5.91203H31.7708V8.75603ZM40.5548 15.92C40.5548 14.384 40.1228 13.184 39.2588 12.32C38.4188 11.432 37.3748 10.988 36.1268 10.988C34.9028 10.988 33.8588 11.432 32.9948 12.32C32.1548 13.208 31.7348 14.42 31.7348 15.956C31.7348 17.492 32.1548 18.704 32.9948 19.592C33.8588 20.48 34.9028 20.924 36.1268 20.924C37.3508 20.924 38.3948 20.48 39.2588 19.592C40.1228 18.68 40.5548 17.456 40.5548 15.92Z" fill="#316DFF"/>
<path d="M52.9284 26.288C51.8484 26.288 50.9604 25.976 50.2644 25.352C49.5924 24.704 49.2564 23.912 49.2564 22.976C49.2564 22.016 49.5924 21.212 50.2644 20.564C50.9604 19.916 51.8484 19.592 52.9284 19.592C53.9844 19.592 54.8484 19.916 55.5204 20.564C56.2164 21.212 56.5644 22.016 56.5644 22.976C56.5644 23.912 56.2164 24.704 55.5204 25.352C54.8484 25.976 53.9844 26.288 52.9284 26.288Z" fill="#0A0A0A"/>
<path d="M85.8406 5.69603C88.3366 5.69603 90.3166 6.45203 91.7806 7.96403C93.2686 9.47603 94.0126 11.576 94.0126 14.264V26H87.8926V15.092C87.8926 13.796 87.5446 12.8 86.8486 12.104C86.1766 11.384 85.2406 11.024 84.0406 11.024C82.8406 11.024 81.8926 11.384 81.1966 12.104C80.5246 12.8 80.1886 13.796 80.1886 15.092V26H74.0686V15.092C74.0686 13.796 73.7206 12.8 73.0246 12.104C72.3526 11.384 71.4166 11.024 70.2166 11.024C69.0166 11.024 68.0686 11.384 67.3726 12.104C66.7006 12.8 66.3646 13.796 66.3646 15.092V26H60.2086V5.91203H66.3646V8.43203C66.9886 7.59203 67.8046 6.93203 68.8126 6.45203C69.8206 5.94803 70.9606 5.69603 72.2326 5.69603C73.7446 5.69603 75.0886 6.02003 76.2646 6.66803C77.4646 7.31603 78.4006 8.24003 79.0726 9.44003C79.7686 8.33603 80.7166 7.43603 81.9166 6.74003C83.1166 6.04403 84.4246 5.69603 85.8406 5.69603Z" fill="#0A0A0A"/>
<path d="M117.254 15.632C117.254 16.208 117.218 16.808 117.146 17.432H103.214C103.31 18.68 103.706 19.64 104.402 20.312C105.122 20.96 105.998 21.284 107.03 21.284C108.566 21.284 109.634 20.636 110.234 19.34H116.786C116.45 20.66 115.838 21.848 114.95 22.904C114.086 23.96 112.994 24.788 111.674 25.388C110.354 25.988 108.878 26.288 107.246 26.288C105.278 26.288 103.526 25.868 101.99 25.028C100.454 24.188 99.254 22.988 98.39 21.428C97.526 19.868 97.094 18.044 97.094 15.956C97.094 13.868 97.514 12.044 98.354 10.484C99.218 8.92403 100.418 7.72403 101.954 6.88403C103.49 6.04403 105.254 5.62403 107.246 5.62403C109.19 5.62403 110.918 6.03203 112.43 6.84803C113.942 7.66403 115.118 8.82803 115.958 10.34C116.822 11.852 117.254 13.616 117.254 15.632ZM110.954 14.012C110.954 12.956 110.594 12.116 109.874 11.492C109.154 10.868 108.254 10.556 107.174 10.556C106.142 10.556 105.266 10.856 104.546 11.456C103.85 12.056 103.418 12.908 103.25 14.012H110.954Z" fill="#0A0A0A"/>
</svg>
