<svg viewBox="0 0 800 500" width="100%" height="100%" xmlns="http://www.w3.org/2000/svg" aria-hidden="true">
    <!-- Background accents -->
    <defs>
        <linearGradient id="g1" x1="0" y1="0" x2="1" y2="1">
            <stop offset="0" stop-color="#E9F1FF"/><stop offset="1" stop-color="#FFFFFF"/>
        </linearGradient>
    </defs>
    <rect x="0" y="0" width="800" height="500" fill="url(#g1)"/>
    <!-- Cloud -->
    <g fill="none" stroke="#00C2E0" stroke-width="2" opacity=".7">
        <path d="M620 120c-6-30-55-46-86-18-27-33-87-16-92 24-44-3-59 56-18 71h210c36-8 36-64-14-77z"/>
    </g>
    <!-- Laptop -->
    <g transform="translate(140,160)" fill="none" stroke="#2F6DFF" stroke-width="3">
        <rect x="40" y="0" width="380" height="220" rx="14"/>
        <rect x="60" y="20" width="340" height="150" rx="8" fill="#F9FBFF" stroke="#BFD3FF"/>
        <rect x="0" y="220" width="460" height="28" rx="10" fill="#EAF1FF" stroke="#BFD3FF"/>
        <!-- Code lines -->
        <g stroke-linecap="round" stroke-width="6" stroke="#6EA0FF">
            <line x1="85" y1="60" x2="230" y2="60"/>
            <line x1="85" y1="90" x2="270" y2="90"/>
            <line x1="85" y1="120" x2="250" y2="120"/>
            <line x1="85" y1="150" x2="210" y2="150"/>
        </g>
        <!-- Brackets badge -->
        <g transform="translate(320,48)">
            <rect x="-6" y="-6" width="64" height="64" rx="14" fill="#2F6DFF" stroke="none" opacity=".12"/>
            <path d="M10 0L0 12l10 12M34 0l10 12-10 12" stroke="#2F6DFF" stroke-width="4" stroke-linecap="round" fill="none"/>
        </g>
    </g>
</svg>